<svg width="174" height="14" viewBox="0 0 174 14" fill="none" xmlns="http://www.w3.org/2000/svg">
<path d="M4.19775 1.912C3.69375 1.912 3.29175 2.002 2.99175 2.182C2.70375 2.35 2.48175 2.602 2.32575 2.938C2.16975 3.274 2.03775 3.682 1.92975 4.162C1.68975 4.162 1.44375 4.15 1.19175 4.126C0.93975 4.102 0.72375 4.042 0.54375 3.946C0.65175 3.454 0.74175 2.92 0.81375 2.344C0.88575 1.756 0.92175 1.234 0.92175 0.778C1.55775 0.801999 2.27175 0.819999 3.06375 0.831999C3.85575 0.831999 4.85175 0.831999 6.05175 0.831999C7.15575 0.831999 8.12175 0.831999 8.94975 0.831999C9.78975 0.819999 10.5218 0.801999 11.1458 0.778C11.1338 1.246 11.1518 1.75 11.1998 2.29C11.2478 2.83 11.3258 3.382 11.4338 3.946C11.0618 4.102 10.5878 4.174 10.0117 4.162C9.92775 3.406 9.72975 2.842 9.41775 2.47C9.11775 2.098 8.63775 1.912 7.97775 1.912H7.34775V10.156C7.34775 10.636 7.38375 11.002 7.45575 11.254C7.53975 11.506 7.69575 11.68 7.92375 11.776C8.15175 11.872 8.48775 11.932 8.93175 11.956C8.97975 12.088 9.01575 12.256 9.03975 12.46C9.06375 12.652 9.07575 12.85 9.07575 13.054C8.71575 13.03 8.27775 13.012 7.76175 13C7.24575 13 6.69375 13 6.10575 13C5.52975 13 4.92375 13 4.28775 13C3.66375 13.012 3.17175 13.03 2.81175 13.054C2.81175 12.634 2.86575 12.268 2.97375 11.956C3.41775 11.932 3.75975 11.872 3.99975 11.776C4.23975 11.68 4.40775 11.506 4.50375 11.254C4.59975 11.002 4.64775 10.636 4.64775 10.156V1.912H4.19775ZM12.1701 13.054C12.1701 12.622 12.2181 12.256 12.3141 11.956C12.6381 11.932 12.8841 11.872 13.0521 11.776C13.2321 11.68 13.3521 11.506 13.4121 11.254C13.4721 11.002 13.5021 10.636 13.5021 10.156V3.658C13.5021 3.19 13.4721 2.836 13.4121 2.596C13.3521 2.344 13.2321 2.17 13.0521 2.074C12.8841 1.978 12.6381 1.912 12.3141 1.876C12.2181 1.588 12.1701 1.222 12.1701 0.778C12.3861 0.789999 12.6561 0.801999 12.9801 0.813999C13.3041 0.813999 13.6341 0.819999 13.9701 0.831999C14.3181 0.831999 14.6301 0.831999 14.9061 0.831999C15.3141 0.831999 15.7641 0.825999 16.2561 0.813999C16.7481 0.801999 17.1741 0.789999 17.5341 0.778C17.5341 0.981999 17.5281 1.174 17.5161 1.354C17.5041 1.534 17.4681 1.708 17.4081 1.876C17.0841 1.912 16.8321 1.978 16.6521 2.074C16.4841 2.17 16.3641 2.344 16.2921 2.596C16.2321 2.836 16.2021 3.19 16.2021 3.658V6.178H20.6481V3.658C20.6481 3.19 20.6121 2.836 20.5401 2.596C20.4801 2.344 20.3601 2.17 20.1801 2.074C20.0121 1.978 19.7661 1.912 19.4421 1.876C19.3581 1.588 19.3161 1.222 19.3161 0.778C19.5201 0.789999 19.7841 0.801999 20.1081 0.813999C20.4321 0.813999 20.7621 0.819999 21.0981 0.831999C21.4461 0.831999 21.7581 0.831999 22.0341 0.831999C22.4421 0.831999 22.8921 0.825999 23.3841 0.813999C23.8761 0.801999 24.3021 0.789999 24.6621 0.778C24.6621 0.981999 24.6561 1.174 24.6441 1.354C24.6321 1.534 24.5961 1.708 24.5361 1.876C24.2121 1.912 23.9601 1.978 23.7801 2.074C23.6121 2.17 23.4921 2.344 23.4201 2.596C23.3601 2.836 23.3301 3.19 23.3301 3.658V10.156C23.3301 10.636 23.3661 11.002 23.4381 11.254C23.5101 11.506 23.6301 11.68 23.7981 11.776C23.9781 11.872 24.2301 11.932 24.5541 11.956C24.5901 12.088 24.6141 12.256 24.6261 12.46C24.6501 12.652 24.6621 12.85 24.6621 13.054C24.3501 13.03 23.9721 13.012 23.5281 13C23.0841 13 22.6161 13 22.1241 13C21.6321 13 21.1281 13 20.6121 13C20.1081 13.012 19.6761 13.03 19.3161 13.054C19.3161 12.622 19.3581 12.256 19.4421 11.956C19.7661 11.932 20.0121 11.872 20.1801 11.776C20.3601 11.68 20.4801 11.506 20.5401 11.254C20.6121 11.002 20.6481 10.636 20.6481 10.156V7.294C20.2281 7.294 19.7421 7.3 19.1901 7.312C18.6501 7.312 18.1101 7.324 17.5701 7.348C17.0421 7.36 16.5861 7.384 16.2021 7.42V10.156C16.2021 10.636 16.2321 11.002 16.2921 11.254C16.3641 11.506 16.4841 11.68 16.6521 11.776C16.8321 11.872 17.0841 11.932 17.4081 11.956C17.4561 12.088 17.4861 12.256 17.4981 12.46C17.5221 12.652 17.5341 12.85 17.5341 13.054C17.2221 13.03 16.8441 13.012 16.4001 13C15.9561 13 15.4881 13 14.9961 13C14.5041 13 14.0001 13 13.4841 13C12.9801 13.012 12.5421 13.03 12.1701 13.054ZM34.1534 13.162C33.8894 12.658 33.6674 12.202 33.4874 11.794C33.3074 11.386 33.1154 10.96 32.9114 10.516C32.6474 9.916 32.3894 9.43 32.1374 9.058C31.8974 8.674 31.5734 8.296 31.1654 7.924C30.8534 7.936 30.5414 7.936 30.2294 7.924V10.048C30.2294 10.588 30.2594 10.99 30.3194 11.254C30.3794 11.518 30.4814 11.698 30.6254 11.794C30.7814 11.878 30.9914 11.932 31.2554 11.956C31.2914 12.076 31.3154 12.244 31.3274 12.46C31.3514 12.664 31.3634 12.862 31.3634 13.054C31.1234 13.042 30.8354 13.03 30.4994 13.018C30.1634 13.006 29.8334 13 29.5094 13C29.1854 13 28.9154 13 28.6994 13C28.2914 13 27.8594 13 27.4034 13C26.9474 13.012 26.5454 13.03 26.1974 13.054C26.1974 12.598 26.2394 12.232 26.3234 11.956C26.6474 11.932 26.8934 11.872 27.0614 11.776C27.2414 11.68 27.3614 11.506 27.4214 11.254C27.4934 11.002 27.5294 10.636 27.5294 10.156V3.64C27.5294 3.172 27.4934 2.818 27.4214 2.578C27.3614 2.326 27.2414 2.152 27.0614 2.056C26.8934 1.948 26.6414 1.882 26.3054 1.858C26.2694 1.714 26.2394 1.534 26.2154 1.318C26.2034 1.09 26.1974 0.909999 26.1974 0.778C26.4734 0.789999 26.8514 0.801999 27.3314 0.813999C27.8234 0.825999 28.3334 0.831999 28.8614 0.831999C29.2694 0.831999 29.7734 0.819999 30.3734 0.795999C30.9734 0.772 31.5914 0.76 32.2274 0.76C33.2114 0.76 34.0094 0.91 34.6214 1.21C35.2454 1.498 35.7074 1.888 36.0074 2.38C36.3074 2.86 36.4574 3.394 36.4574 3.982C36.4574 4.93 36.1994 5.704 35.6834 6.304C35.1674 6.892 34.4954 7.288 33.6674 7.492C33.9554 7.696 34.2014 7.912 34.4054 8.14C34.6214 8.368 34.8374 8.662 35.0534 9.022C35.2814 9.382 35.5514 9.856 35.8634 10.444C36.0674 10.804 36.2474 11.086 36.4034 11.29C36.5594 11.494 36.7394 11.644 36.9434 11.74C37.1474 11.824 37.4174 11.878 37.7534 11.902C37.7534 12.322 37.7054 12.688 37.6094 13C36.9014 13 36.2474 13.012 35.6474 13.036C35.0594 13.06 34.5614 13.102 34.1534 13.162ZM31.2554 1.858C30.8954 1.858 30.5534 1.906 30.2294 2.002V6.754C30.4694 6.79 30.6854 6.808 30.8774 6.808C31.3694 6.808 31.8254 6.718 32.2454 6.538C32.6654 6.358 33.0014 6.082 33.2534 5.71C33.5174 5.338 33.6494 4.864 33.6494 4.288C33.6494 3.544 33.4514 2.956 33.0554 2.524C32.6594 2.08 32.0594 1.858 31.2554 1.858ZM47.4941 9.544C47.7821 9.592 48.0401 9.664 48.2681 9.76C48.5081 9.844 48.6941 9.946 48.8261 10.066C48.6941 10.486 48.5801 10.96 48.4841 11.488C48.3881 12.016 48.3161 12.532 48.2681 13.036C47.9681 13.024 47.5841 13.018 47.1161 13.018C46.6481 13.018 46.1381 13.012 45.5861 13C45.0461 13 44.5121 13 43.9841 13C43.6601 13 43.2521 13 42.7601 13C42.2681 13.012 41.7641 13.018 41.2481 13.018C40.7321 13.018 40.2521 13.018 39.8081 13.018C39.3761 13.03 39.0521 13.042 38.8361 13.054C38.8361 12.838 38.8481 12.634 38.8721 12.442C38.8961 12.25 38.9261 12.088 38.9621 11.956C39.2861 11.932 39.5321 11.872 39.7001 11.776C39.8801 11.668 40.0001 11.482 40.0601 11.218C40.1321 10.954 40.1681 10.564 40.1681 10.048V3.658C40.1681 3.19 40.1321 2.836 40.0601 2.596C40.0001 2.344 39.8801 2.17 39.7001 2.074C39.5321 1.978 39.2801 1.912 38.9441 1.876C38.9081 1.744 38.8781 1.57 38.8541 1.354C38.8421 1.138 38.8361 0.946 38.8361 0.778C39.1481 0.789999 39.5561 0.801999 40.0601 0.813999C40.5641 0.813999 41.0681 0.819999 41.5721 0.831999C42.0881 0.831999 42.5141 0.831999 42.8501 0.831999C44.2061 0.831999 45.2681 0.825999 46.0361 0.813999C46.8041 0.801999 47.3861 0.789999 47.7821 0.778C47.8061 1.066 47.8301 1.396 47.8541 1.768C47.8901 2.128 47.9321 2.494 47.9801 2.866C48.0401 3.226 48.1001 3.538 48.1601 3.802C47.9921 3.898 47.8001 3.97 47.5841 4.018C47.3801 4.066 47.1281 4.09 46.8281 4.09C46.7801 3.682 46.6721 3.31 46.5041 2.974C46.3361 2.638 46.0661 2.374 45.6941 2.182C45.3221 1.978 44.8001 1.876 44.1281 1.876H42.8681V6.376H43.4081C44.0681 6.376 44.5181 6.28 44.7581 6.088C44.9981 5.896 45.1241 5.536 45.1361 5.008C45.3161 4.948 45.5081 4.906 45.7121 4.882C45.9281 4.846 46.1501 4.828 46.3781 4.828C46.3421 5.44 46.3241 6.124 46.3241 6.88C46.3241 7.708 46.3421 8.41 46.3781 8.986C46.1261 8.986 45.9041 8.98 45.7121 8.968C45.5201 8.944 45.3401 8.902 45.1721 8.842C45.1241 8.29 44.9741 7.918 44.7221 7.726C44.4821 7.534 44.0441 7.438 43.4081 7.438H42.8681V10.012C42.8681 10.756 42.9701 11.26 43.1741 11.524C43.3781 11.776 43.7801 11.902 44.3801 11.902H44.5961C45.2201 11.902 45.7121 11.818 46.0721 11.65C46.4321 11.482 46.7141 11.224 46.9181 10.876C47.1341 10.528 47.3261 10.084 47.4941 9.544ZM58.7441 9.544C59.0321 9.592 59.2901 9.664 59.5181 9.76C59.7581 9.844 59.9441 9.946 60.0761 10.066C59.9441 10.486 59.8301 10.96 59.7341 11.488C59.6381 12.016 59.5661 12.532 59.5181 13.036C59.2181 13.024 58.8341 13.018 58.3661 13.018C57.8981 13.018 57.3881 13.012 56.8361 13C56.2961 13 55.7621 13 55.2341 13C54.9101 13 54.5021 13 54.0101 13C53.5181 13.012 53.0141 13.018 52.4981 13.018C51.9821 13.018 51.5021 13.018 51.0581 13.018C50.6261 13.03 50.3021 13.042 50.0861 13.054C50.0861 12.838 50.0981 12.634 50.1221 12.442C50.1461 12.25 50.1761 12.088 50.2121 11.956C50.5361 11.932 50.7821 11.872 50.9501 11.776C51.1301 11.668 51.2501 11.482 51.3101 11.218C51.3821 10.954 51.4181 10.564 51.4181 10.048V3.658C51.4181 3.19 51.3821 2.836 51.3101 2.596C51.2501 2.344 51.1301 2.17 50.9501 2.074C50.7821 1.978 50.5301 1.912 50.1941 1.876C50.1581 1.744 50.1281 1.57 50.1041 1.354C50.0921 1.138 50.0861 0.946 50.0861 0.778C50.3981 0.789999 50.8061 0.801999 51.3101 0.813999C51.8141 0.813999 52.3181 0.819999 52.8221 0.831999C53.3381 0.831999 53.7641 0.831999 54.1001 0.831999C55.4561 0.831999 56.5181 0.825999 57.2861 0.813999C58.0541 0.801999 58.6361 0.789999 59.0321 0.778C59.0561 1.066 59.0801 1.396 59.1041 1.768C59.1401 2.128 59.1821 2.494 59.2301 2.866C59.2901 3.226 59.3501 3.538 59.4101 3.802C59.2421 3.898 59.0501 3.97 58.8341 4.018C58.6301 4.066 58.3781 4.09 58.0781 4.09C58.0301 3.682 57.9221 3.31 57.7541 2.974C57.5861 2.638 57.3161 2.374 56.9441 2.182C56.5721 1.978 56.0501 1.876 55.3781 1.876H54.1181V6.376H54.6581C55.3181 6.376 55.7681 6.28 56.0081 6.088C56.2481 5.896 56.3741 5.536 56.3861 5.008C56.5661 4.948 56.7581 4.906 56.9621 4.882C57.1781 4.846 57.4001 4.828 57.6281 4.828C57.5921 5.44 57.5741 6.124 57.5741 6.88C57.5741 7.708 57.5921 8.41 57.6281 8.986C57.3761 8.986 57.1541 8.98 56.9621 8.968C56.7701 8.944 56.5901 8.902 56.4221 8.842C56.3741 8.29 56.2241 7.918 55.9721 7.726C55.7321 7.534 55.2941 7.438 54.6581 7.438H54.1181V10.012C54.1181 10.756 54.2201 11.26 54.4241 11.524C54.6281 11.776 55.0301 11.902 55.6301 11.902H55.8461C56.4701 11.902 56.9621 11.818 57.3221 11.65C57.6821 11.482 57.9641 11.224 58.1681 10.876C58.3841 10.528 58.5761 10.084 58.7441 9.544ZM64.9396 13.054C64.9396 12.838 64.9516 12.634 64.9756 12.442C64.9996 12.25 65.0296 12.088 65.0656 11.956C65.3896 11.932 65.6356 11.872 65.8036 11.776C65.9836 11.668 66.1096 11.482 66.1816 11.218C66.2536 10.954 66.2896 10.564 66.2896 10.048V3.658C66.2896 3.19 66.2536 2.836 66.1816 2.596C66.1216 2.344 66.0016 2.17 65.8216 2.074C65.6416 1.978 65.3896 1.912 65.0656 1.876C65.0296 1.744 64.9996 1.57 64.9756 1.354C64.9636 1.138 64.9576 0.946 64.9576 0.778C65.1976 0.789999 65.4976 0.801999 65.8576 0.813999C66.2176 0.813999 66.5956 0.819999 66.9916 0.831999C67.3876 0.831999 67.7656 0.831999 68.1256 0.831999C68.4256 0.831999 68.7376 0.825999 69.0616 0.813999C69.3976 0.801999 69.7516 0.795999 70.1236 0.795999C70.9636 0.795999 71.7796 0.873999 72.5716 1.03C73.3636 1.174 74.0776 1.45 74.7136 1.858C75.3496 2.266 75.8536 2.854 76.2256 3.622C76.5976 4.378 76.7836 5.374 76.7836 6.61C76.7836 7.774 76.6156 8.746 76.2796 9.526C75.9436 10.294 75.5056 10.912 74.9656 11.38C74.4376 11.848 73.8676 12.202 73.2556 12.442C72.6436 12.67 72.0556 12.82 71.4916 12.892C70.9276 12.964 70.4596 13 70.0876 13C69.7636 13 69.3556 13 68.8636 13C68.3716 13.012 67.8676 13.018 67.3516 13.018C66.8356 13.018 66.3556 13.018 65.9116 13.018C65.4796 13.03 65.1556 13.042 64.9396 13.054ZM70.4836 11.902C70.8916 11.902 71.2996 11.842 71.7076 11.722C72.1276 11.59 72.5056 11.35 72.8416 11.002C73.1896 10.642 73.4656 10.132 73.6696 9.472C73.8856 8.812 73.9936 7.96 73.9936 6.916C73.9936 5.944 73.8796 5.134 73.6516 4.486C73.4356 3.826 73.1356 3.304 72.7516 2.92C72.3796 2.524 71.9536 2.242 71.4736 2.074C70.9936 1.906 70.4956 1.822 69.9796 1.822C69.6076 1.822 69.2716 1.876 68.9716 1.984V10.012C68.9716 10.756 69.0736 11.26 69.2776 11.524C69.4816 11.776 69.8836 11.902 70.4836 11.902ZM83.607 0.723999L87.729 9.994C87.969 10.534 88.167 10.942 88.323 11.218C88.479 11.482 88.623 11.668 88.755 11.776C88.899 11.872 89.061 11.932 89.241 11.956C89.325 12.244 89.367 12.61 89.367 13.054C89.175 13.042 88.923 13.03 88.611 13.018C88.299 13.018 87.981 13.012 87.657 13C87.345 13 87.093 13 86.901 13C86.709 13 86.439 13 86.091 13C85.743 13.012 85.395 13.018 85.047 13.018C84.711 13.03 84.453 13.042 84.273 13.054C84.273 12.586 84.321 12.22 84.417 11.956C84.861 11.884 85.119 11.752 85.191 11.56C85.275 11.368 85.215 11.038 85.011 10.57L84.579 9.544C83.859 9.544 83.121 9.556 82.365 9.58C81.609 9.592 80.871 9.622 80.151 9.67L79.917 10.3C79.725 10.78 79.677 11.164 79.773 11.452C79.869 11.74 80.139 11.908 80.583 11.956C80.667 12.256 80.709 12.622 80.709 13.054C80.505 13.03 80.211 13.012 79.827 13C79.443 13 79.101 13 78.801 13C78.501 13 78.201 13.006 77.901 13.018C77.601 13.03 77.361 13.042 77.181 13.054C77.181 12.862 77.193 12.676 77.217 12.496C77.241 12.304 77.283 12.124 77.343 11.956C77.547 11.92 77.721 11.848 77.865 11.74C78.009 11.62 78.147 11.434 78.279 11.182C78.423 10.918 78.591 10.552 78.783 10.084L82.545 0.813999C82.725 0.778 82.893 0.754 83.049 0.741999C83.205 0.729999 83.391 0.723999 83.607 0.723999ZM81.501 6.214L80.601 8.554H84.147L83.139 6.214C82.947 5.794 82.779 5.404 82.635 5.044C82.503 4.672 82.389 4.3 82.293 3.928C82.173 4.312 82.047 4.69 81.915 5.062C81.795 5.434 81.657 5.818 81.501 6.214ZM97.2237 11.956C97.2837 12.136 97.3197 12.31 97.3317 12.478C97.3557 12.646 97.3677 12.838 97.3677 13.054C96.8997 13.03 96.3897 13.012 95.8377 13C95.2977 13 94.7697 13 94.2537 13C93.7137 13 93.1557 13.006 92.5797 13.018C92.0037 13.03 91.5057 13.042 91.0857 13.054C91.0977 12.85 91.1097 12.658 91.1217 12.478C91.1457 12.286 91.1877 12.112 91.2477 11.956C91.7517 11.908 92.1237 11.836 92.3637 11.74C92.6037 11.644 92.7597 11.458 92.8317 11.182C92.9037 10.894 92.9397 10.444 92.9397 9.832V8.446L90.2037 2.938C90.0117 2.554 89.8197 2.29 89.6277 2.146C89.4357 1.99 89.2077 1.9 88.9437 1.876C88.8957 1.708 88.8597 1.54 88.8357 1.372C88.8237 1.204 88.8177 1.012 88.8177 0.795999C89.1657 0.807999 89.5797 0.819999 90.0597 0.831999C90.5397 0.831999 90.9537 0.831999 91.3017 0.831999C91.5297 0.831999 91.8117 0.831999 92.1477 0.831999C92.4957 0.831999 92.8377 0.831999 93.1737 0.831999C93.5217 0.819999 93.8037 0.807999 94.0197 0.795999C94.0197 1.024 94.0077 1.216 93.9837 1.372C93.9717 1.528 93.9477 1.69 93.9117 1.858C93.4917 1.906 93.2637 2.05 93.2277 2.29C93.1917 2.53 93.2817 2.878 93.4977 3.334C93.7257 3.826 93.9837 4.408 94.2717 5.08C94.5717 5.74 94.8657 6.424 95.1537 7.132C95.4657 6.4 95.7597 5.722 96.0357 5.098C96.3117 4.474 96.5697 3.91 96.8097 3.406C97.0497 2.902 97.1217 2.536 97.0257 2.308C96.9417 2.068 96.7017 1.924 96.3057 1.876C96.2577 1.708 96.2217 1.546 96.1977 1.39C96.1737 1.222 96.1617 1.024 96.1617 0.795999C96.4257 0.807999 96.7137 0.819999 97.0257 0.831999C97.3377 0.831999 97.6497 0.831999 97.9617 0.831999C98.2377 0.831999 98.5137 0.831999 98.7897 0.831999C99.0657 0.819999 99.3297 0.807999 99.5817 0.795999C99.5817 1.012 99.5697 1.204 99.5457 1.372C99.5217 1.54 99.4917 1.702 99.4557 1.858C99.1917 1.918 98.9397 2.074 98.6997 2.326C98.4717 2.566 98.2197 2.98 97.9437 3.568L95.6217 8.464V9.742C95.6217 10.354 95.6577 10.81 95.7297 11.11C95.8137 11.41 95.9637 11.614 96.1797 11.722C96.4077 11.83 96.7557 11.908 97.2237 11.956ZM104.623 13.162C103.843 13.162 103.123 13.072 102.463 12.892C101.815 12.7 101.179 12.43 100.555 12.082C100.651 11.614 100.711 11.134 100.735 10.642C100.759 10.138 100.771 9.682 100.771 9.274C101.011 9.202 101.275 9.154 101.563 9.13C101.851 9.106 102.127 9.094 102.391 9.094C102.451 10.126 102.643 10.864 102.967 11.308C103.303 11.752 103.879 11.974 104.695 11.974C105.403 11.974 105.913 11.824 106.225 11.524C106.537 11.212 106.693 10.858 106.693 10.462C106.693 10.042 106.549 9.694 106.261 9.418C105.985 9.13 105.619 8.878 105.163 8.662C104.719 8.446 104.245 8.224 103.741 7.996C103.237 7.756 102.763 7.48 102.319 7.168C101.875 6.844 101.509 6.442 101.221 5.962C100.945 5.482 100.807 4.882 100.807 4.162C100.807 3.37 100.981 2.716 101.329 2.2C101.677 1.684 102.157 1.3 102.769 1.048C103.381 0.795999 104.065 0.669999 104.821 0.669999C105.469 0.669999 106.111 0.747999 106.747 0.903999C107.383 1.06 107.869 1.246 108.205 1.462C108.205 1.906 108.211 2.368 108.223 2.848C108.235 3.328 108.265 3.718 108.313 4.018C108.121 4.126 107.869 4.204 107.557 4.252C107.257 4.288 106.987 4.306 106.747 4.306C106.579 3.31 106.321 2.644 105.973 2.308C105.637 1.972 105.205 1.804 104.677 1.804C104.173 1.804 103.765 1.924 103.453 2.164C103.153 2.392 103.003 2.734 103.003 3.19C103.003 3.634 103.147 4.006 103.435 4.306C103.735 4.606 104.113 4.87 104.569 5.098C105.037 5.326 105.529 5.56 106.045 5.8C106.573 6.04 107.065 6.322 107.521 6.646C107.989 6.958 108.373 7.348 108.673 7.816C108.973 8.284 109.123 8.866 109.123 9.562C109.123 10.258 108.955 10.876 108.619 11.416C108.283 11.956 107.779 12.382 107.107 12.694C106.447 13.006 105.619 13.162 104.623 13.162ZM120.136 13.162C118.888 13.162 117.802 12.91 116.878 12.406C115.954 11.89 115.24 11.158 114.736 10.21C114.232 9.25 113.98 8.11 113.98 6.79C113.98 5.47 114.256 4.354 114.808 3.442C115.372 2.53 116.134 1.84 117.094 1.372C118.054 0.903999 119.134 0.669999 120.334 0.669999C121.162 0.669999 121.948 0.759999 122.692 0.94C123.436 1.108 124.072 1.318 124.6 1.57C124.528 1.978 124.474 2.416 124.438 2.884C124.414 3.352 124.402 3.844 124.402 4.36C124.198 4.444 123.97 4.498 123.718 4.522C123.478 4.546 123.244 4.558 123.016 4.558C122.98 3.826 122.848 3.262 122.62 2.866C122.392 2.458 122.08 2.17 121.684 2.002C121.3 1.834 120.856 1.75 120.352 1.75C119.524 1.75 118.846 1.972 118.318 2.416C117.802 2.86 117.418 3.436 117.166 4.144C116.926 4.84 116.806 5.584 116.806 6.376C116.806 7.444 116.944 8.404 117.22 9.256C117.508 10.096 117.916 10.762 118.444 11.254C118.984 11.746 119.644 11.992 120.424 11.992C120.688 11.992 120.91 11.98 121.09 11.956C121.27 11.932 121.45 11.884 121.63 11.812C121.822 11.74 121.966 11.62 122.062 11.452C122.17 11.272 122.224 10.954 122.224 10.498V9.742C122.224 9.298 122.188 8.968 122.116 8.752C122.056 8.536 121.924 8.392 121.72 8.32C121.516 8.236 121.216 8.188 120.82 8.176C120.772 8.032 120.736 7.864 120.712 7.672C120.7 7.48 120.694 7.276 120.694 7.06C120.994 7.084 121.366 7.102 121.81 7.114C122.254 7.114 122.668 7.114 123.052 7.114C123.424 7.114 123.838 7.114 124.294 7.114C124.75 7.102 125.122 7.09 125.41 7.078C125.41 7.246 125.404 7.432 125.392 7.636C125.38 7.828 125.35 8.008 125.302 8.176C125.074 8.188 124.906 8.23 124.798 8.302C124.69 8.374 124.618 8.512 124.582 8.716C124.558 8.908 124.546 9.202 124.546 9.598V10.21C124.546 10.57 124.564 10.864 124.6 11.092C124.636 11.308 124.708 11.536 124.816 11.776C124.276 12.172 123.604 12.502 122.8 12.766C121.996 13.03 121.108 13.162 120.136 13.162ZM134.911 13.162C134.647 12.658 134.425 12.202 134.245 11.794C134.065 11.386 133.873 10.96 133.669 10.516C133.405 9.916 133.147 9.43 132.895 9.058C132.655 8.674 132.331 8.296 131.923 7.924C131.611 7.936 131.299 7.936 130.987 7.924V10.048C130.987 10.588 131.017 10.99 131.077 11.254C131.137 11.518 131.239 11.698 131.383 11.794C131.539 11.878 131.749 11.932 132.013 11.956C132.049 12.076 132.073 12.244 132.085 12.46C132.109 12.664 132.121 12.862 132.121 13.054C131.881 13.042 131.593 13.03 131.257 13.018C130.921 13.006 130.591 13 130.267 13C129.943 13 129.673 13 129.457 13C129.049 13 128.617 13 128.161 13C127.705 13.012 127.303 13.03 126.955 13.054C126.955 12.598 126.997 12.232 127.081 11.956C127.405 11.932 127.651 11.872 127.819 11.776C127.999 11.68 128.119 11.506 128.179 11.254C128.251 11.002 128.287 10.636 128.287 10.156V3.64C128.287 3.172 128.251 2.818 128.179 2.578C128.119 2.326 127.999 2.152 127.819 2.056C127.651 1.948 127.399 1.882 127.063 1.858C127.027 1.714 126.997 1.534 126.973 1.318C126.961 1.09 126.955 0.909999 126.955 0.778C127.231 0.789999 127.609 0.801999 128.089 0.813999C128.581 0.825999 129.091 0.831999 129.619 0.831999C130.027 0.831999 130.531 0.819999 131.131 0.795999C131.731 0.772 132.349 0.76 132.985 0.76C133.969 0.76 134.767 0.91 135.379 1.21C136.003 1.498 136.465 1.888 136.765 2.38C137.065 2.86 137.215 3.394 137.215 3.982C137.215 4.93 136.957 5.704 136.441 6.304C135.925 6.892 135.253 7.288 134.425 7.492C134.713 7.696 134.959 7.912 135.163 8.14C135.379 8.368 135.595 8.662 135.811 9.022C136.039 9.382 136.309 9.856 136.621 10.444C136.825 10.804 137.005 11.086 137.161 11.29C137.317 11.494 137.497 11.644 137.701 11.74C137.905 11.824 138.175 11.878 138.511 11.902C138.511 12.322 138.463 12.688 138.367 13C137.659 13 137.005 13.012 136.405 13.036C135.817 13.06 135.319 13.102 134.911 13.162ZM132.013 1.858C131.653 1.858 131.311 1.906 130.987 2.002V6.754C131.227 6.79 131.443 6.808 131.635 6.808C132.127 6.808 132.583 6.718 133.003 6.538C133.423 6.358 133.759 6.082 134.011 5.71C134.275 5.338 134.407 4.864 134.407 4.288C134.407 3.544 134.209 2.956 133.813 2.524C133.417 2.08 132.817 1.858 132.013 1.858ZM145.57 0.723999L149.692 9.994C149.932 10.534 150.13 10.942 150.286 11.218C150.442 11.482 150.586 11.668 150.718 11.776C150.862 11.872 151.024 11.932 151.204 11.956C151.288 12.244 151.33 12.61 151.33 13.054C151.138 13.042 150.886 13.03 150.574 13.018C150.262 13.018 149.944 13.012 149.62 13C149.308 13 149.056 13 148.864 13C148.672 13 148.402 13 148.054 13C147.706 13.012 147.358 13.018 147.01 13.018C146.674 13.03 146.416 13.042 146.236 13.054C146.236 12.586 146.284 12.22 146.38 11.956C146.824 11.884 147.082 11.752 147.154 11.56C147.238 11.368 147.178 11.038 146.974 10.57L146.542 9.544C145.822 9.544 145.084 9.556 144.328 9.58C143.572 9.592 142.834 9.622 142.114 9.67L141.88 10.3C141.688 10.78 141.64 11.164 141.736 11.452C141.832 11.74 142.102 11.908 142.546 11.956C142.63 12.256 142.672 12.622 142.672 13.054C142.468 13.03 142.174 13.012 141.79 13C141.406 13 141.064 13 140.764 13C140.464 13 140.164 13.006 139.864 13.018C139.564 13.03 139.324 13.042 139.144 13.054C139.144 12.862 139.156 12.676 139.18 12.496C139.204 12.304 139.246 12.124 139.306 11.956C139.51 11.92 139.684 11.848 139.828 11.74C139.972 11.62 140.11 11.434 140.242 11.182C140.386 10.918 140.554 10.552 140.746 10.084L144.508 0.813999C144.688 0.778 144.856 0.754 145.012 0.741999C145.168 0.729999 145.354 0.723999 145.57 0.723999ZM143.464 6.214L142.564 8.554H146.11L145.102 6.214C144.91 5.794 144.742 5.404 144.598 5.044C144.466 4.672 144.352 4.3 144.256 3.928C144.136 4.312 144.01 4.69 143.878 5.062C143.758 5.434 143.62 5.818 143.464 6.214ZM157.696 13.162C156.508 13.162 155.464 12.898 154.564 12.37C153.676 11.83 152.98 11.086 152.476 10.138C151.972 9.19 151.72 8.092 151.72 6.844C151.72 5.824 151.888 4.93 152.224 4.162C152.56 3.382 153.016 2.734 153.592 2.218C154.168 1.702 154.822 1.318 155.554 1.066C156.286 0.801999 157.042 0.669999 157.822 0.669999C158.53 0.669999 159.208 0.753999 159.856 0.922C160.516 1.078 161.164 1.306 161.8 1.606C161.716 2.026 161.662 2.476 161.638 2.956C161.614 3.424 161.602 3.904 161.602 4.396C161.446 4.468 161.236 4.522 160.972 4.558C160.708 4.594 160.456 4.612 160.216 4.612C160.192 3.508 159.976 2.758 159.568 2.362C159.16 1.954 158.614 1.75 157.93 1.75C157.114 1.75 156.454 1.972 155.95 2.416C155.458 2.848 155.098 3.418 154.87 4.126C154.654 4.822 154.546 5.572 154.546 6.376C154.546 7.384 154.696 8.296 154.996 9.112C155.308 9.928 155.764 10.576 156.364 11.056C156.964 11.524 157.708 11.758 158.596 11.758C159.616 11.758 160.63 11.458 161.638 10.858C161.734 10.942 161.818 11.062 161.89 11.218C161.974 11.362 162.028 11.5 162.052 11.632C161.488 12.088 160.852 12.46 160.144 12.748C159.448 13.024 158.632 13.162 157.696 13.162ZM172.07 9.544C172.358 9.592 172.616 9.664 172.844 9.76C173.084 9.844 173.27 9.946 173.402 10.066C173.27 10.486 173.156 10.96 173.06 11.488C172.964 12.016 172.892 12.532 172.844 13.036C172.544 13.024 172.16 13.018 171.692 13.018C171.224 13.018 170.714 13.012 170.162 13C169.622 13 169.088 13 168.56 13C168.236 13 167.828 13 167.336 13C166.844 13.012 166.34 13.018 165.824 13.018C165.308 13.018 164.828 13.018 164.384 13.018C163.952 13.03 163.628 13.042 163.412 13.054C163.412 12.838 163.424 12.634 163.448 12.442C163.472 12.25 163.502 12.088 163.538 11.956C163.862 11.932 164.108 11.872 164.276 11.776C164.456 11.668 164.576 11.482 164.636 11.218C164.708 10.954 164.744 10.564 164.744 10.048V3.658C164.744 3.19 164.708 2.836 164.636 2.596C164.576 2.344 164.456 2.17 164.276 2.074C164.108 1.978 163.856 1.912 163.52 1.876C163.484 1.744 163.454 1.57 163.43 1.354C163.418 1.138 163.412 0.946 163.412 0.778C163.724 0.789999 164.132 0.801999 164.636 0.813999C165.14 0.813999 165.644 0.819999 166.148 0.831999C166.664 0.831999 167.09 0.831999 167.426 0.831999C168.782 0.831999 169.844 0.825999 170.612 0.813999C171.38 0.801999 171.962 0.789999 172.358 0.778C172.382 1.066 172.406 1.396 172.43 1.768C172.466 2.128 172.508 2.494 172.556 2.866C172.616 3.226 172.676 3.538 172.736 3.802C172.568 3.898 172.376 3.97 172.16 4.018C171.956 4.066 171.704 4.09 171.404 4.09C171.356 3.682 171.248 3.31 171.08 2.974C170.912 2.638 170.642 2.374 170.27 2.182C169.898 1.978 169.376 1.876 168.704 1.876H167.444V6.376H167.984C168.644 6.376 169.094 6.28 169.334 6.088C169.574 5.896 169.7 5.536 169.712 5.008C169.892 4.948 170.084 4.906 170.288 4.882C170.504 4.846 170.726 4.828 170.954 4.828C170.918 5.44 170.9 6.124 170.9 6.88C170.9 7.708 170.918 8.41 170.954 8.986C170.702 8.986 170.48 8.98 170.288 8.968C170.096 8.944 169.916 8.902 169.748 8.842C169.7 8.29 169.55 7.918 169.298 7.726C169.058 7.534 168.62 7.438 167.984 7.438H167.444V10.012C167.444 10.756 167.546 11.26 167.75 11.524C167.954 11.776 168.356 11.902 168.956 11.902H169.172C169.796 11.902 170.288 11.818 170.648 11.65C171.008 11.482 171.29 11.224 171.494 10.876C171.71 10.528 171.902 10.084 172.07 9.544Z" fill="#595858"/>
</svg>
